<svg preserveAspectRatio="none" width="100%" height="100%" overflow="visible" style="display: block;" viewBox="0 0 81.3998 92" fill="none" xmlns="http://www.w3.org/2000/svg">
<g id="Group 1000004649">
<path id="path64" d="M74.4857 88.2308L0 89.0686L13.1998 16.1273L65.6855 19.1258L74.4857 88.2308Z" fill="var(--fill-0, #8BC6FF)"/>
<g id="Group 1000004650">
<path id="path66" d="M81.3999 92H11.8379L12.2287 88.9313L74.4857 88.2308L65.9912 21.5261L74.4857 20.6151L81.3999 92Z" fill="var(--fill-0, #0051FF)" fill-opacity="0.6"/>
<path id="path68" d="M12.229 88.9316L20.1874 26.4361L65.9915 21.5264L74.486 88.2311L12.229 88.9316Z" fill="var(--fill-0, #0051FF)" fill-opacity="0.6"/>
</g>
<path id="path70" d="M57.3532 14.1609H52.9025C52.9025 8.80523 48.544 4.44872 43.1852 4.44872C37.8275 4.44872 33.468 8.80523 33.468 14.1609H29.0173C29.0173 6.35288 35.3732 5.20609e-07 43.1852 5.20609e-07C50.9973 5.20609e-07 57.3532 6.35288 57.3532 14.1609Z" fill="var(--fill-0, #5982DA)"/>
</g>
</svg>
