<svg preserveAspectRatio="none" width="100%" height="100%" overflow="visible" style="display: block;" viewBox="0 0 15.8112 15.8112" fill="none" xmlns="http://www.w3.org/2000/svg">
<g id="eye-slash">
<path id="Vector" d="M9.57237 6.23884L6.23884 9.57237C5.81062 9.14415 5.5471 8.55782 5.5471 7.90561C5.5471 6.60118 6.60118 5.5471 7.90561 5.5471C8.55782 5.5471 9.14415 5.81062 9.57237 6.23884Z" stroke="var(--stroke-0, #1F1F1F)" stroke-width="0.988201" stroke-linecap="round" stroke-linejoin="round"/>
<path id="Vector_2" d="M11.7398 3.80128C10.5869 2.93166 9.26932 2.45733 7.90561 2.45733C5.58004 2.45733 3.41259 3.82763 1.90393 6.19931C1.31101 7.12822 1.31101 8.68958 1.90393 9.61849C2.42439 10.4354 3.03048 11.1403 3.68928 11.7069" stroke="var(--stroke-0, #1F1F1F)" stroke-width="0.988201" stroke-linecap="round" stroke-linejoin="round"/>
<path id="Vector_3" d="M5.5471 12.8664C6.29813 13.1826 7.09528 13.3539 7.90561 13.3539C10.2312 13.3539 12.3986 11.9836 13.9073 9.6119C14.5002 8.68299 14.5002 7.12163 13.9073 6.19272C13.6899 5.85015 13.4527 5.52734 13.2089 5.22429" stroke="var(--stroke-0, #1F1F1F)" stroke-width="0.988201" stroke-linecap="round" stroke-linejoin="round"/>
<path id="Vector_4" d="M10.2183 8.36689C10.047 9.2958 9.28937 10.0534 8.36046 10.2247" stroke="var(--stroke-0, #1F1F1F)" stroke-width="0.988201" stroke-linecap="round" stroke-linejoin="round"/>
<path id="Vector_5" d="M6.23884 9.57237L1.3176 14.4936" stroke="var(--stroke-0, #1F1F1F)" stroke-width="0.988201" stroke-linecap="round" stroke-linejoin="round"/>
<path id="Vector_6" d="M14.4938 1.3176L9.57255 6.23884" stroke="var(--stroke-0, #1F1F1F)" stroke-width="0.988201" stroke-linecap="round" stroke-linejoin="round"/>
<g id="Vector_7" opacity="0">
</g>
</g>
</svg>
