<svg preserveAspectRatio="none" width="100%" height="100%" overflow="visible" style="display: block;" viewBox="0 0 22 11.3333" fill="none" xmlns="http://www.w3.org/2000/svg">
<g id="Border" clip-path="url(#clip0_0_13416)">
<g id="Shape">
</g>
<mask id="mask0_0_13416" style="mask-type:alpha" maskUnits="userSpaceOnUse" x="0" y="0" width="22" height="12">
<path id="Shape_2" d="M2.66669 0H19.3333V0C20.8061 0 22 1.19391 22 2.66667V8.66667V8.66667C22 10.1394 20.8061 11.3333 19.3333 11.3333H2.66669V11.3333C1.19391 11.3333 0 10.1394 0 8.66667V2.66667V2.66667C0 1.19391 1.19391 0 2.66669 0Z" fill="var(--fill-0, black)"/>
</mask>
<g mask="url(#mask0_0_13416)">
<path id="Fill" d="M2.66667 0H19.3333V0C20.8061 0 22 1.19391 22 2.66667V8.66667V8.66667C22 10.1394 20.8061 11.3333 19.3333 11.3333H2.66667V11.3333C1.19391 11.3333 0 10.1394 0 8.66667V2.66667V2.66667C0 1.19391 1.19391 0 2.66667 0Z" stroke="var(--stroke-0, black)" stroke-opacity="0.34902" stroke-width="2"/>
</g>
</g>
<defs>
<clipPath id="clip0_0_13416">
<rect width="22" height="11.3333" fill="white"/>
</clipPath>
</defs>
</svg>
