<svg preserveAspectRatio="none" width="100%" height="100%" overflow="visible" style="display: block;" viewBox="0 0 17 10.6667" fill="none" xmlns="http://www.w3.org/2000/svg">
<g id="Cellular Connection" clip-path="url(#clip0_0_13491)">
<g id="Shape">
</g>
<mask id="mask0_0_13491" style="mask-type:luminance" maskUnits="userSpaceOnUse" x="0" y="0" width="17" height="11">
<path id="Shape_2" fill-rule="evenodd" clip-rule="evenodd" d="M1 6.66666H2C2.55231 6.66666 3 7.11438 3 7.66666V9.66666C3 10.219 2.55231 10.6667 2 10.6667H1C0.447723 10.6667 0 10.219 0 9.66666V7.66666C0 7.11438 0.447723 6.66666 1 6.66666V6.66666ZM5.66663 4.66666H6.66663C7.2189 4.66666 7.66663 5.11438 7.66663 5.66666V9.66666C7.66663 10.219 7.2189 10.6667 6.66663 10.6667H5.66663C5.11432 10.6667 4.66663 10.219 4.66663 9.66666V5.66666C4.66663 5.11438 5.11432 4.66666 5.66663 4.66666ZM10.3333 2.33333H11.3333C11.8856 2.33333 12.3333 2.78105 12.3333 3.33333V9.66666C12.3333 10.219 11.8856 10.6667 11.3333 10.6667H10.3333C9.78101 10.6667 9.33331 10.219 9.33331 9.66666V3.33333C9.33331 2.78105 9.78101 2.33333 10.3333 2.33333ZM15 0H16C16.5523 0 17 0.44771 17 1V9.66666C17 10.219 16.5523 10.6667 16 10.6667H15C14.4477 10.6667 14 10.219 14 9.66666V1C14 0.44771 14.4477 0 15 0V0Z" fill="var(--fill-0, white)"/>
</mask>
<g mask="url(#mask0_0_13491)">
<path id="Fill" d="M-5 -5H22V15.6667H-5V-5Z" fill="var(--fill-0, black)"/>
</g>
</g>
<defs>
<clipPath id="clip0_0_13491">
<rect width="17" height="10.6667" fill="white"/>
</clipPath>
</defs>
</svg>
