<svg preserveAspectRatio="none" width="100%" height="100%" overflow="visible" style="display: block;" viewBox="0 0 17.1 19.95" fill="none" xmlns="http://www.w3.org/2000/svg">
<path id="clock" fill-rule="evenodd" clip-rule="evenodd" d="M11.4 0H5.7V1.9H11.4V0ZM7.6 12.35H9.5V6.65H7.6V12.35ZM15.2285 6.0705L16.5775 4.7215C16.169 4.237 15.7225 3.781 15.238 3.382L13.889 4.731C12.4165 3.553 10.564 2.85 8.55 2.85C3.8285 2.85 0 6.6785 0 11.4C0 16.1215 3.819 19.95 8.55 19.95C13.281 19.95 17.1 16.1215 17.1 11.4C17.1 9.386 16.397 7.5335 15.2285 6.0705ZM8.55 18.05C4.8735 18.05 1.9 15.0765 1.9 11.4C1.9 7.7235 4.8735 4.75 8.55 4.75C12.2265 4.75 15.2 7.7235 15.2 11.4C15.2 15.0765 12.2265 18.05 8.55 18.05Z" fill="var(--fill-0, #004BFE)"/>
</svg>
