<svg preserveAspectRatio="none" width="100%" height="100%" overflow="visible" style="display: block;" viewBox="0 0 10.451 10.0491" fill="none" xmlns="http://www.w3.org/2000/svg">
<path id="Icon ionic-ios-heart" d="M7.63729 0V0V0C7.62976 0 7.61971 0 7.61217 0C6.6148 0 5.733 0.527576 5.22552 1.30638C4.71804 0.527576 3.83623 0 2.83886 0C2.83133 0 2.82128 0 2.81374 0V0V0C1.25865 0.0150735 0 1.27874 0 2.83886C0 3.7684 0.406987 5.08734 1.20086 6.17264C2.71325 8.24024 5.22552 10.0491 5.22552 10.0491C5.22552 10.0491 7.73779 8.24024 9.25017 6.17264C10.044 5.08734 10.451 3.7684 10.451 2.83886C10.451 1.27874 9.19239 0.0150735 7.63729 0Z" fill="var(--fill-0, #0042E0)"/>
</svg>
