<svg preserveAspectRatio="none" width="100%" height="100%" overflow="visible" style="display: block;" viewBox="0 0 15.9321 15.3193" fill="none" xmlns="http://www.w3.org/2000/svg">
<path id="heart" d="M11.6427 0V0V0C11.6312 0 11.6159 0 11.6044 0C10.084 0 8.73968 0.804265 7.96605 1.99151C7.19243 0.804265 5.84816 0 4.32771 0C4.31622 0 4.3009 0 4.28941 0V0V0C1.91875 0.022979 0 1.94938 0 4.32771C0 5.74475 0.620433 7.75541 1.83066 9.4099C4.13622 12.5619 7.96605 15.3193 7.96605 15.3193C7.96605 15.3193 11.7959 12.5619 14.1014 9.4099C15.3117 7.75541 15.9321 5.74475 15.9321 4.32771C15.9321 1.94938 14.0134 0.022979 11.6427 0Z" fill="var(--fill-0, black)"/>
</svg>
