<svg preserveAspectRatio="none" width="100%" height="100%" overflow="visible" style="display: block;" viewBox="0 0 17.6299 13.0217" fill="none" xmlns="http://www.w3.org/2000/svg">
<path id="Icon ionic-ios-share-alt" d="M17.4738 5.46969L10.997 0.0979744C10.919 0.0328628 10.8455 -0.0037626 10.74 0.000306732C10.538 0.00844539 10.2809 0.1346 10.2809 0.325866V3.01986C10.2809 3.10125 10.2075 3.1745 10.1157 3.18671C3.67562 4.06165 0.962801 8.33461 0.00344473 12.7703C-0.033277 12.9453 0.232956 13.1081 0.356891 12.9698C2.70708 10.3449 5.56679 8.63168 10.0881 8.59913C10.1891 8.59913 10.2809 8.70493 10.2809 8.79446V11.4396C10.2809 11.7245 10.7078 11.8506 10.9465 11.6553L17.4692 6.18999C17.5886 6.09232 17.6253 5.97838 17.6299 5.84815C17.6253 5.71793 17.5886 5.56736 17.4738 5.46969Z" fill="var(--fill-0, #B5A2A2)"/>
</svg>
