<svg preserveAspectRatio="none" width="100%" height="100%" overflow="visible" style="display: block;" viewBox="0 0 15.8112 15.8112" fill="none" xmlns="http://www.w3.org/2000/svg">
<g id="arrow-down">
<path id="Vector" d="M7.9056 11.0678C7.44444 11.0678 6.98328 10.89 6.63412 10.5408L2.33874 6.24543C2.14769 6.05438 2.14769 5.73815 2.33874 5.5471C2.52979 5.35605 2.84602 5.35605 3.03707 5.5471L7.33245 9.84248C7.64867 10.1587 8.16254 10.1587 8.47876 9.84248L12.7741 5.5471C12.9652 5.35605 13.2814 5.35605 13.4725 5.5471C13.6635 5.73815 13.6635 6.05438 13.4725 6.24543L9.17709 10.5408C8.82793 10.89 8.36676 11.0678 7.9056 11.0678Z" fill="var(--fill-0, #1F1F1F)"/>
<path id="Vector_2" opacity="0" d="M15.8112 0H0V15.8112H15.8112V0Z" fill="var(--fill-0, #1F1F1F)"/>
</g>
</svg>
