<svg preserveAspectRatio="none" width="100%" height="100%" overflow="visible" style="display: block;" viewBox="0 0 15.2724 10.9656" fill="none" xmlns="http://www.w3.org/2000/svg">
<g id="Wifi" clip-path="url(#clip0_0_13406)">
<g id="Shape">
</g>
<mask id="mask0_0_13406" style="mask-type:luminance" maskUnits="userSpaceOnUse" x="0" y="0" width="16" height="11">
<path id="Shape_2" fill-rule="evenodd" clip-rule="evenodd" d="M7.6366 2.27733C9.85251 2.27743 11.9837 3.12886 13.5896 4.65566C13.7106 4.77354 13.9039 4.77205 14.023 4.65233L15.179 3.48566C15.2393 3.42493 15.2729 3.34269 15.2724 3.25711C15.2719 3.17152 15.2373 3.08967 15.1763 3.02966C10.9612 -1.00989 4.31141 -1.00989 0.0963187 3.02966C0.0352225 3.08962 0.000615614 3.17146 5.26244e-06 3.25703C-0.000483019 3.34262 0.0330253 3.42489 0.0932975 3.48566L1.24961 4.65233C1.36872 4.77222 1.56211 4.77371 1.68302 4.65566C3.2891 3.12876 5.42051 2.27732 7.6366 2.27733V2.27733ZM7.6366 6.07299C8.8541 6.07291 10.0282 6.52544 10.9306 7.34266C11.0527 7.45864 11.245 7.45613 11.364 7.33699L12.5186 6.17032C12.5794 6.10914 12.6132 6.02612 12.6123 5.93984C12.6114 5.85358 12.576 5.77128 12.514 5.71133C9.76581 3.15495 5.5098 3.15495 2.7616 5.71133C2.69962 5.77128 2.6641 5.85362 2.6633 5.93992C2.66251 6.02621 2.69642 6.10922 2.7573 6.17032L3.9116 7.33699C4.03061 7.45613 4.22291 7.45864 4.34501 7.34266C5.2468 6.52599 6.4199 6.07349 7.6366 6.07299V6.07299ZM9.8556 8.85733C9.91742 8.79672 9.95142 8.71331 9.94962 8.62682C9.94791 8.5403 9.9105 8.45836 9.84632 8.40033C8.57071 7.32145 6.70252 7.32145 5.42701 8.40033C5.36271 8.45832 5.32532 8.54024 5.32352 8.62674C5.3216 8.71325 5.3556 8.79668 5.4173 8.85733L7.41501 10.873C7.47352 10.9322 7.55332 10.9656 7.6366 10.9656C7.71991 10.9656 7.79972 10.9322 7.85831 10.873L9.8556 8.85733Z" fill="var(--fill-0, white)"/>
</mask>
<g mask="url(#mask0_0_13406)">
<path id="Fill" d="M-5 -5H20.2724V15.9656H-5V-5Z" fill="var(--fill-0, black)"/>
</g>
</g>
<defs>
<clipPath id="clip0_0_13406">
<rect width="15.2724" height="10.9656" fill="white"/>
</clipPath>
</defs>
</svg>
